<mxfile host="Electron" modified="2024-02-04T17:32:55.834Z" agent="Mozilla/5.0 (Windows NT 10.0; Win64; x64) AppleWebKit/537.36 (KHTML, like Gecko) draw.io/22.1.21 Chrome/120.0.6099.109 Electron/28.1.0 Safari/537.36" etag="NAvFe932L9S5blHlYuIM" version="22.1.21" type="device">
  <diagram id="R2lEEEUBdFMjLlhIrx00" name="Page-1">
    <mxGraphModel dx="1289" dy="-347" grid="1" gridSize="10" guides="1" tooltips="1" connect="1" arrows="1" fold="1" page="1" pageScale="1" pageWidth="850" pageHeight="1100" math="0" shadow="0" extFonts="Permanent Marker^https://fonts.googleapis.com/css?family=Permanent+Marker">
      <root>
        <mxCell id="0" />
        <mxCell id="1" parent="0" />
        <mxCell id="lhOddBzRQFfRg8fEtFo7-27" style="edgeStyle=orthogonalEdgeStyle;rounded=0;orthogonalLoop=1;jettySize=auto;html=1;" parent="1" source="5DDEMW4cjJmX2lWBqMXy-26" target="lhOddBzRQFfRg8fEtFo7-21" edge="1">
          <mxGeometry relative="1" as="geometry" />
        </mxCell>
        <mxCell id="5DDEMW4cjJmX2lWBqMXy-26" value="Cria" style="rhombus;whiteSpace=wrap;html=1;" parent="1" vertex="1">
          <mxGeometry x="265" y="1250" width="80" height="80" as="geometry" />
        </mxCell>
        <mxCell id="lhOddBzRQFfRg8fEtFo7-39" style="edgeStyle=orthogonalEdgeStyle;rounded=0;orthogonalLoop=1;jettySize=auto;html=1;" parent="1" source="5DDEMW4cjJmX2lWBqMXy-61" target="lhOddBzRQFfRg8fEtFo7-24" edge="1">
          <mxGeometry relative="1" as="geometry" />
        </mxCell>
        <mxCell id="5DDEMW4cjJmX2lWBqMXy-61" value="Publica" style="rhombus;whiteSpace=wrap;html=1;" parent="1" vertex="1">
          <mxGeometry x="285" y="1610" width="80" height="80" as="geometry" />
        </mxCell>
        <mxCell id="lhOddBzRQFfRg8fEtFo7-48" style="edgeStyle=orthogonalEdgeStyle;rounded=0;orthogonalLoop=1;jettySize=auto;html=1;" parent="1" source="5DDEMW4cjJmX2lWBqMXy-87" target="lhOddBzRQFfRg8fEtFo7-25" edge="1">
          <mxGeometry relative="1" as="geometry" />
        </mxCell>
        <mxCell id="5DDEMW4cjJmX2lWBqMXy-87" value="Possui" style="rhombus;whiteSpace=wrap;html=1;" parent="1" vertex="1">
          <mxGeometry x="450" y="1370" width="80" height="80" as="geometry" />
        </mxCell>
        <mxCell id="lhOddBzRQFfRg8fEtFo7-26" style="edgeStyle=orthogonalEdgeStyle;rounded=0;orthogonalLoop=1;jettySize=auto;html=1;" parent="1" source="lhOddBzRQFfRg8fEtFo7-20" target="5DDEMW4cjJmX2lWBqMXy-26" edge="1">
          <mxGeometry relative="1" as="geometry" />
        </mxCell>
        <mxCell id="lhOddBzRQFfRg8fEtFo7-20" value="Cidadao" style="rounded=1;whiteSpace=wrap;html=1;" parent="1" vertex="1">
          <mxGeometry x="65" y="1260" width="120" height="60" as="geometry" />
        </mxCell>
        <mxCell id="lhOddBzRQFfRg8fEtFo7-34" style="edgeStyle=orthogonalEdgeStyle;rounded=0;orthogonalLoop=1;jettySize=auto;html=1;" parent="1" source="lhOddBzRQFfRg8fEtFo7-21" target="5DDEMW4cjJmX2lWBqMXy-87" edge="1">
          <mxGeometry relative="1" as="geometry" />
        </mxCell>
        <mxCell id="lhOddBzRQFfRg8fEtFo7-46" style="edgeStyle=orthogonalEdgeStyle;rounded=0;orthogonalLoop=1;jettySize=auto;html=1;" parent="1" source="lhOddBzRQFfRg8fEtFo7-21" target="lhOddBzRQFfRg8fEtFo7-43" edge="1">
          <mxGeometry relative="1" as="geometry" />
        </mxCell>
        <mxCell id="lhOddBzRQFfRg8fEtFo7-21" value="Manifestação" style="rounded=1;whiteSpace=wrap;html=1;" parent="1" vertex="1">
          <mxGeometry x="430" y="1260" width="120" height="60" as="geometry" />
        </mxCell>
        <mxCell id="lhOddBzRQFfRg8fEtFo7-22" value="Secretaria" style="rounded=1;whiteSpace=wrap;html=1;" parent="1" vertex="1">
          <mxGeometry x="665" y="1500" width="120" height="60" as="geometry" />
        </mxCell>
        <mxCell id="lhOddBzRQFfRg8fEtFo7-36" style="edgeStyle=orthogonalEdgeStyle;rounded=0;orthogonalLoop=1;jettySize=auto;html=1;" parent="1" source="lhOddBzRQFfRg8fEtFo7-23" target="lhOddBzRQFfRg8fEtFo7-35" edge="1">
          <mxGeometry relative="1" as="geometry" />
        </mxCell>
        <mxCell id="lhOddBzRQFfRg8fEtFo7-38" style="edgeStyle=orthogonalEdgeStyle;rounded=0;orthogonalLoop=1;jettySize=auto;html=1;" parent="1" source="lhOddBzRQFfRg8fEtFo7-23" target="5DDEMW4cjJmX2lWBqMXy-61" edge="1">
          <mxGeometry relative="1" as="geometry" />
        </mxCell>
        <mxCell id="lhOddBzRQFfRg8fEtFo7-44" style="edgeStyle=orthogonalEdgeStyle;rounded=0;orthogonalLoop=1;jettySize=auto;html=1;entryX=0;entryY=0.5;entryDx=0;entryDy=0;" parent="1" source="lhOddBzRQFfRg8fEtFo7-23" target="lhOddBzRQFfRg8fEtFo7-43" edge="1">
          <mxGeometry relative="1" as="geometry" />
        </mxCell>
        <mxCell id="lhOddBzRQFfRg8fEtFo7-23" value="Admin" style="rounded=1;whiteSpace=wrap;html=1;" parent="1" vertex="1">
          <mxGeometry x="265" y="1500" width="120" height="60" as="geometry" />
        </mxCell>
        <mxCell id="lhOddBzRQFfRg8fEtFo7-45" style="edgeStyle=orthogonalEdgeStyle;rounded=0;orthogonalLoop=1;jettySize=auto;html=1;entryX=0.5;entryY=1;entryDx=0;entryDy=0;" parent="1" source="lhOddBzRQFfRg8fEtFo7-24" target="lhOddBzRQFfRg8fEtFo7-43" edge="1">
          <mxGeometry relative="1" as="geometry" />
        </mxCell>
        <mxCell id="lhOddBzRQFfRg8fEtFo7-24" value="Noticia" style="rounded=1;whiteSpace=wrap;html=1;" parent="1" vertex="1">
          <mxGeometry x="265" y="1750" width="120" height="60" as="geometry" />
        </mxCell>
        <mxCell id="lhOddBzRQFfRg8fEtFo7-25" value="Resposta" style="rounded=1;whiteSpace=wrap;html=1;" parent="1" vertex="1">
          <mxGeometry x="65" y="1380" width="120" height="60" as="geometry" />
        </mxCell>
        <mxCell id="lhOddBzRQFfRg8fEtFo7-37" style="edgeStyle=orthogonalEdgeStyle;rounded=0;orthogonalLoop=1;jettySize=auto;html=1;" parent="1" source="lhOddBzRQFfRg8fEtFo7-35" target="lhOddBzRQFfRg8fEtFo7-25" edge="1">
          <mxGeometry relative="1" as="geometry" />
        </mxCell>
        <mxCell id="lhOddBzRQFfRg8fEtFo7-35" value="Publica" style="rhombus;whiteSpace=wrap;html=1;" parent="1" vertex="1">
          <mxGeometry x="85" y="1490" width="80" height="80" as="geometry" />
        </mxCell>
        <mxCell id="lhOddBzRQFfRg8fEtFo7-47" style="edgeStyle=orthogonalEdgeStyle;rounded=0;orthogonalLoop=1;jettySize=auto;html=1;" parent="1" source="lhOddBzRQFfRg8fEtFo7-43" target="lhOddBzRQFfRg8fEtFo7-22" edge="1">
          <mxGeometry relative="1" as="geometry" />
        </mxCell>
        <mxCell id="lhOddBzRQFfRg8fEtFo7-43" value="Pode Ter" style="rhombus;whiteSpace=wrap;html=1;" parent="1" vertex="1">
          <mxGeometry x="555" y="1490" width="80" height="80" as="geometry" />
        </mxCell>
      </root>
    </mxGraphModel>
  </diagram>
</mxfile>
